<svg xmlns="http://www.w3.org/2000/svg" xmlns:xlink="http://www.w3.org/1999/xlink" viewBox="0 0 498.46 113.32"><defs><style>.cls-1{fill:url(#linear-gradient);}.cls-2{fill:url(#linear-gradient-2);}.cls-3{fill:url(#linear-gradient-3);}.cls-4{fill:url(#linear-gradient-4);}.cls-5{fill:url(#linear-gradient-5);}.cls-6{fill:url(#linear-gradient-7);}.cls-7{fill:url(#linear-gradient-8);}.cls-8{fill:url(#linear-gradient-9);}</style><linearGradient id="linear-gradient" x1="9.18" y1="68.96" x2="507.99" y2="68.96" gradientUnits="userSpaceOnUse"><stop offset="0" stop-color="#38c1d1"/><stop offset="1" stop-color="#61ba94"/></linearGradient><linearGradient id="linear-gradient-2" x1="9.18" y1="58.13" x2="507.99" y2="58.13" xlink:href="#linear-gradient"/><linearGradient id="linear-gradient-3" x1="9.18" y1="57.3" x2="507.99" y2="57.3" xlink:href="#linear-gradient"/><linearGradient id="linear-gradient-4" x1="9.18" y1="46.9" x2="507.99" y2="46.9" xlink:href="#linear-gradient"/><linearGradient id="linear-gradient-5" x1="9.18" y1="10.37" x2="507.99" y2="10.37" xlink:href="#linear-gradient"/><linearGradient id="linear-gradient-7" x1="9.18" y1="45" x2="507.99" y2="45" xlink:href="#linear-gradient"/><linearGradient id="linear-gradient-8" x1="9.18" y1="46.38" x2="507.99" y2="46.38" xlink:href="#linear-gradient"/><linearGradient id="linear-gradient-9" x1="9.18" y1="46.23" x2="507.99" y2="46.23" xlink:href="#linear-gradient"/></defs><title>Gradient</title><g id="Layer_2" data-name="Layer 2"><g id="Layer_1-2" data-name="Layer 1"><path class="cls-1" d="M134.8,24.61A26.9,26.9,0,0,0,124,26.78a30,30,0,0,0-9.38,6.5v-7H98.76v87.07h15.88V83.26a31.29,31.29,0,0,0,9.44,6.42,26.51,26.51,0,0,0,10.25,2q12.36,0,21.39-9.58t9-23.82q0-14.76-8.73-24.2A27.82,27.82,0,0,0,134.8,24.61Zm9,47.05A16.27,16.27,0,0,1,131.46,77a16.58,16.58,0,0,1-12.54-5.24q-5-5.25-5-13.74,0-8.32,5-13.48a16.69,16.69,0,0,1,12.54-5.15,16.29,16.29,0,0,1,12.42,5.24q4.92,5.25,4.92,13.45A19.06,19.06,0,0,1,143.79,71.66Z"/><path class="cls-2" d="M203.06,24.61q-14.17,0-23.58,9.64t-9.4,24.23q0,14.24,9.43,23.7t24.43,9.46a37.68,37.68,0,0,0,16.7-3.43,31.78,31.78,0,0,0,12.07-10.57l-13.47-6.33a21.34,21.34,0,0,1-15.41,6.27q-7.52,0-12.34-4a17.12,17.12,0,0,1-6-10.81h51.39l.06-3q0-15.83-9.43-25.46T203.06,24.61ZM186.25,50.16q2.7-5.92,5.87-8.27a19.18,19.18,0,0,1,11.73-3.75,18.17,18.17,0,0,1,10.83,3.34,16,16,0,0,1,6.25,8.68Z"/><path class="cls-3" d="M279.69,24.61a24,24,0,0,0-9,1.79,38.64,38.64,0,0,0-9.85,6.38V26.25h-16V90h16V64.42q0-9.95.7-12.93a17.26,17.26,0,0,1,4.82-9,11.77,11.77,0,0,1,8.33-3.25,10,10,0,0,1,6.28,2,10.36,10.36,0,0,1,3.57,5.71q1,3.74,1,15.15V90h15.82V47.87q0-11-5.56-16.64A21.88,21.88,0,0,0,279.69,24.61Z"/><path class="cls-4" d="M354.12,46.29V61.7h25q-3.58,7.62-9.42,11.19t-14.34,3.57a30.35,30.35,0,0,1-22-8.67,28.39,28.39,0,0,1-8.91-21.15A27.66,27.66,0,0,1,333,26.13a29.24,29.24,0,0,1,21.32-8.43q14.6,0,25.57,11.6l11.55-11.43q-7.9-8.55-16.17-12.07a53.31,53.31,0,0,0-21-4.16q-21.5,0-34.92,15.06A43.23,43.23,0,0,0,308,46.46a46.26,46.26,0,0,0,6.13,23.27,42.65,42.65,0,0,0,16.64,16.61,48.6,48.6,0,0,0,23.93,5.83q12.54,0,21.86-5.33a40.94,40.94,0,0,0,15.17-15.47,42.18,42.18,0,0,0,5.86-21.45l-.12-3.63Z"/><path class="cls-5" d="M412.13,0A9.77,9.77,0,0,0,405,3a9.81,9.81,0,0,0-3,7.21,10.28,10.28,0,0,0,3,7.47,9.79,9.79,0,0,0,7.27,3.07,9.66,9.66,0,0,0,7.13-3,10,10,0,0,0,3-7.29,10.14,10.14,0,0,0-3-7.38A9.8,9.8,0,0,0,412.13,0Z"/><rect class="cls-2" x="404.13" y="26.25" width="16" height="63.75"/><path class="cls-6" d="M436.36,3.08a12.21,12.21,0,0,0-4.42,8.35q-.36,2.28-.41,14.82h-5.69V39.79h5.69V90h16V39.79h10.14V26.25H447.52l.06-8c0-1.83.32-3.05.94-3.63a6,6,0,0,1,4.1-1.17,21.6,21.6,0,0,1,5.69,1V2.29A33.16,33.16,0,0,0,447.06,0Q440.15,0,436.36,3.08Z"/><polygon class="cls-7" points="488.97 26.25 488.97 2.75 472.97 2.75 472.97 26.25 464.77 26.25 464.77 40.02 472.97 40.02 472.97 90 488.97 90 488.97 40.02 498.46 40.02 498.46 26.25 488.97 26.25"/><path class="cls-8" d="M74,10.5C63.61,2,51.59-1.13,38.3.67,19.63,3.21,3.91,18,.07,36.53c-.21,1,0,1.39,1.08,1.39,5,0,10.08,0,15.12,0a1.41,1.41,0,0,0,1.5-1.06,41.83,41.83,0,0,1,1.81-4.18,28.79,28.79,0,0,1,54,17.4c-1.35,10.07-6.73,17.64-15.83,22.06-10.27,5-20.34,4-29.73-2.59a58.36,58.36,0,0,1-5-4.39c.9-.46,1.45-.77,2-1,6.24-2.89,12.48-5.79,18.73-8.64a1.91,1.91,0,0,0,1.28-2c0-4.75,0-9.51,0-14.27,0-.39,0-.79-.07-1.35-.46.16-.73.23-1,.34L2.11,57.59c-1.54.72-1.56.75-1,2.34A46,46,0,0,0,14.91,81,44.88,44.88,0,0,0,47.4,92.21,43.9,43.9,0,0,0,75.3,80.87C87.06,70.31,92.24,57,90.66,41.2A44.1,44.1,0,0,0,74,10.5Z"/></g></g></svg>